{
  "accessors": [
    {
      "name": "object1_1_0_positions",
      "componentType": 5126,
      "count": 124,
      "min": [
        -0.9447243809700012,
        -0.06499888747930527,
        -0.4501526951789856
      ],
      "max": [
        0.9453059434890747,
        0.2305060774087906,
        0.372332900762558
      ],
      "type": "VEC3",
      "bufferView": 0,
      "byteOffset": 0
    },
    {
      "name": "object1_1_0_normals",
      "componentType": 5126,
      "count": 124,
      "min": [
        -0.5966669321060181,
        -0.9758914709091187,
        -0.9596788883209229
      ],
      "max": [
        0.5722034573554993,
        0.9749568700790405,
        0.957714319229126
      ],
      "type": "VEC3",
      "bufferView": 1,
      "byteOffset": 0
    },
    {
      "name": "object1_1_0_texcoords",
      "componentType": 5126,
      "count": 124,
      "min": [
        0,
        0
      ],
      "max": [
        1,
        1
      ],
      "type": "VEC2",
      "bufferView": 2,
      "byteOffset": 0
    },
    {
      "name": "object1_1_0_indices",
      "componentType": 5123,
      "count": 192,
      "min": [
        0
      ],
      "max": [
        123
      ],
      "type": "SCALAR",
      "bufferView": 3,
      "byteOffset": 0
    },
    {
      "name": "object1_1_1_positions",
      "componentType": 5126,
      "count": 18,
      "min": [
        -0.9447243809700012,
        -0.06499888747930527,
        -0.4501526951789856
      ],
      "max": [
        0.9453059434890747,
        0.2305060774087906,
        0.372332900762558
      ],
      "type": "VEC3",
      "bufferView": 0,
      "byteOffset": 1488
    },
    {
      "name": "object1_1_1_normals",
      "componentType": 5126,
      "count": 18,
      "min": [
        -0.9976426959037781,
        -0.016217170283198357,
        -0.06667838245630264
      ],
      "max": [
        0.9714556932449341,
        0.07141482830047607,
        0.2983740270137787
      ],
      "type": "VEC3",
      "bufferView": 1,
      "byteOffset": 1488
    },
    {
      "name": "object1_1_1_texcoords",
      "componentType": 5126,
      "count": 18,
      "min": [
        0,
        0
      ],
      "max": [
        1,
        1
      ],
      "type": "VEC2",
      "bufferView": 2,
      "byteOffset": 992
    },
    {
      "name": "object1_1_1_indices",
      "componentType": 5123,
      "count": 36,
      "min": [
        0
      ],
      "max": [
        17
      ],
      "type": "SCALAR",
      "bufferView": 3,
      "byteOffset": 384
    }
  ],
  "asset": {
    "generator": "obj2gltf",
    "version": "2.0"
  },
  "buffers": [
    {
      "name": "Prop_Branch_1",
      "byteLength": 5000,
      "uri": "data:application/octet-stream;base64,"
    }
  ],
  "bufferViews": [
    {
      "name": "bufferView_0",
      "buffer": 0,
      "byteLength": 1704,
      "byteOffset": 0,
      "byteStride": 12,
      "target": 34962
    },
    {
      "name": "bufferView_1",
      "buffer": 0,
      "byteLength": 1704,
      "byteOffset": 1704,
      "byteStride": 12,
      "target": 34962
    },
    {
      "name": "bufferView_2",
      "buffer": 0,
      "byteLength": 1136,
      "byteOffset": 3408,
      "byteStride": 8,
      "target": 34962
    },
    {
      "name": "bufferView_3",
      "buffer": 0,
      "byteLength": 456,
      "byteOffset": 4544,
      "target": 34963
    }
  ],
  "materials": [
    {
      "name": "Wood_Dark",
      "pbrMetallicRoughness": {
        "baseColorFactor": [
          0.5176,
          0.4196,
          0.3333,
          1
        ],
        "metallicFactor": 0,
        "roughnessFactor": 1
      },
      "emissiveFactor": [
        0,
        0,
        0
      ],
      "alphaMode": "OPAQUE",
      "doubleSided": false
    },
    {
      "name": "Wood_Light",
      "pbrMetallicRoughness": {
        "baseColorFactor": [
          0.7373,
          0.6314,
          0.4627,
          1
        ],
        "metallicFactor": 0,
        "roughnessFactor": 1
      },
      "emissiveFactor": [
        0,
        0,
        0
      ],
      "alphaMode": "OPAQUE",
      "doubleSided": false
    }
  ],
  "meshes": [
    {
      "name": "object1_1",
      "primitives": [
        {
          "attributes": {
            "POSITION": 0,
            "NORMAL": 1,
            "TEXCOORD_0": 2
          },
          "indices": 3,
          "material": 0,
          "mode": 4
        },
        {
          "attributes": {
            "POSITION": 4,
            "NORMAL": 5,
            "TEXCOORD_0": 6
          },
          "indices": 7,
          "material": 1,
          "mode": 4
        }
      ]
    }
  ],
  "nodes": [
    {
      "name": "object1",
      "mesh": 0
    }
  ],
  "scene": 0,
  "scenes": [
    {
      "nodes": [
        0
      ]
    }
  ]
}
