{
  "accessors": [
    {
      "name": "object1_1_0_positions",
      "componentType": 5126,
      "count": 169,
      "min": [
        -0.28660252690315247,
        0,
        -0.33856406807899475
      ],
      "max": [
        0.21650634706020355,
        2.700000047683716,
        0.3885640501976013
      ],
      "type": "VEC3",
      "bufferView": 0,
      "byteOffset": 0
    },
    {
      "name": "object1_1_0_normals",
      "componentType": 5126,
      "count": 169,
      "min": [
        -0.9996919631958008,
        -1,
        -0.8685947060585022
      ],
      "max": [
        0.9996919631958008,
        1,
        0.8713176250457764
      ],
      "type": "VEC3",
      "bufferView": 1,
      "byteOffset": 0
    },
    {
      "name": "object1_1_0_texcoords",
      "componentType": 5126,
      "count": 169,
      "min": [
        0,
        0
      ],
      "max": [
        1,
        1
      ],
      "type": "VEC2",
      "bufferView": 2,
      "byteOffset": 0
    },
    {
      "name": "object1_1_0_indices",
      "componentType": 5123,
      "count": 282,
      "min": [
        0
      ],
      "max": [
        168
      ],
      "type": "SCALAR",
      "bufferView": 3,
      "byteOffset": 0
    },
    {
      "name": "object2_1_0_positions",
      "componentType": 5126,
      "count": 182,
      "min": [
        -1.198451280593872,
        2.5218749046325684,
        -1.2683823108673096
      ],
      "max": [
        0.9984513521194458,
        4.678124904632568,
        1.2683823108673096
      ],
      "type": "VEC3",
      "bufferView": 0,
      "byteOffset": 2028
    },
    {
      "name": "object2_1_0_normals",
      "componentType": 5126,
      "count": 182,
      "min": [
        -1,
        -1,
        -0.8660253882408142
      ],
      "max": [
        1,
        1,
        0.8660253882408142
      ],
      "type": "VEC3",
      "bufferView": 1,
      "byteOffset": 2028
    },
    {
      "name": "object2_1_0_texcoords",
      "componentType": 5126,
      "count": 182,
      "min": [
        0,
        0
      ],
      "max": [
        1,
        1
      ],
      "type": "VEC2",
      "bufferView": 2,
      "byteOffset": 1352
    },
    {
      "name": "object2_1_0_indices",
      "componentType": 5123,
      "count": 288,
      "min": [
        0
      ],
      "max": [
        181
      ],
      "type": "SCALAR",
      "bufferView": 3,
      "byteOffset": 564
    }
  ],
  "asset": {
    "generator": "obj2gltf",
    "version": "2.0"
  },
  "buffers": [
    {
      "name": "Prop_Tree_Oak_2",
      "byteLength": 12372,
      "uri": "data:application/octet-stream;base64,"
    }
  ],
  "bufferViews": [
    {
      "name": "bufferView_0",
      "buffer": 0,
      "byteLength": 4212,
      "byteOffset": 0,
      "byteStride": 12,
      "target": 34962
    },
    {
      "name": "bufferView_1",
      "buffer": 0,
      "byteLength": 4212,
      "byteOffset": 4212,
      "byteStride": 12,
      "target": 34962
    },
    {
      "name": "bufferView_2",
      "buffer": 0,
      "byteLength": 2808,
      "byteOffset": 8424,
      "byteStride": 8,
      "target": 34962
    },
    {
      "name": "bufferView_3",
      "buffer": 0,
      "byteLength": 1140,
      "byteOffset": 11232,
      "target": 34963
    }
  ],
  "materials": [
    {
      "name": "Wood_Dark",
      "pbrMetallicRoughness": {
        "baseColorFactor": [
          0.5176,
          0.4196,
          0.3333,
          1
        ],
        "metallicFactor": 0,
        "roughnessFactor": 1
      },
      "emissiveFactor": [
        0,
        0,
        0
      ],
      "alphaMode": "OPAQUE",
      "doubleSided": false
    },
    {
      "name": "Oak_Leaves",
      "pbrMetallicRoughness": {
        "baseColorFactor": [
          0.3216,
          0.5412,
          0.1569,
          1
        ],
        "metallicFactor": 0,
        "roughnessFactor": 1
      },
      "emissiveFactor": [
        0,
        0,
        0
      ],
      "alphaMode": "OPAQUE",
      "doubleSided": false
    }
  ],
  "meshes": [
    {
      "name": "object1_1",
      "primitives": [
        {
          "attributes": {
            "POSITION": 0,
            "NORMAL": 1,
            "TEXCOORD_0": 2
          },
          "indices": 3,
          "material": 0,
          "mode": 4
        }
      ]
    },
    {
      "name": "object2_1",
      "primitives": [
        {
          "attributes": {
            "POSITION": 4,
            "NORMAL": 5,
            "TEXCOORD_0": 6
          },
          "indices": 7,
          "material": 1,
          "mode": 4
        }
      ]
    }
  ],
  "nodes": [
    {
      "name": "object1",
      "mesh": 0
    },
    {
      "name": "object2",
      "mesh": 1
    }
  ],
  "scene": 0,
  "scenes": [
    {
      "nodes": [
        0,
        1
      ]
    }
  ]
}
