{
  "accessors": [
    {
      "name": "object1_1_0_positions",
      "componentType": 5126,
      "count": 12,
      "min": [
        -0.01054420042783022,
        0.6875694990158081,
        -0.0020455201156437397
      ],
      "max": [
        0.0017631900263950229,
        0.9584042429924011,
        0.0119990399107337
      ],
      "type": "VEC3",
      "bufferView": 0,
      "byteOffset": 0
    },
    {
      "name": "object1_1_0_normals",
      "componentType": 5126,
      "count": 12,
      "min": [
        -0.7590469717979431,
        -0.7918212413787842,
        -0.9777281880378723
      ],
      "max": [
        0.9411554336547852,
        0.0440639890730381,
        0.6506116390228271
      ],
      "type": "VEC3",
      "bufferView": 1,
      "byteOffset": 0
    },
    {
      "name": "object1_1_0_texcoords",
      "componentType": 5126,
      "count": 12,
      "min": [
        0,
        0
      ],
      "max": [
        1,
        1
      ],
      "type": "VEC2",
      "bufferView": 2,
      "byteOffset": 0
    },
    {
      "name": "object1_1_0_indices",
      "componentType": 5123,
      "count": 12,
      "min": [
        0
      ],
      "max": [
        11
      ],
      "type": "SCALAR",
      "bufferView": 3,
      "byteOffset": 0
    },
    {
      "name": "object2_1_0_positions",
      "componentType": 5126,
      "count": 24,
      "min": [
        -0.004922050051391125,
        0,
        -0.009415349923074245
      ],
      "max": [
        0.008873029612004757,
        0.33126136660575867,
        0.004960380028933287
      ],
      "type": "VEC3",
      "bufferView": 0,
      "byteOffset": 144
    },
    {
      "name": "object2_1_0_normals",
      "componentType": 5126,
      "count": 24,
      "min": [
        -0.9431726932525635,
        -1,
        -0.9828712940216064
      ],
      "max": [
        0.9431726932525635,
        1,
        0.9828712940216064
      ],
      "type": "VEC3",
      "bufferView": 1,
      "byteOffset": 144
    },
    {
      "name": "object2_1_0_texcoords",
      "componentType": 5126,
      "count": 24,
      "min": [
        0,
        0
      ],
      "max": [
        1,
        1
      ],
      "type": "VEC2",
      "bufferView": 2,
      "byteOffset": 96
    },
    {
      "name": "object2_1_0_indices",
      "componentType": 5123,
      "count": 24,
      "min": [
        0
      ],
      "max": [
        23
      ],
      "type": "SCALAR",
      "bufferView": 3,
      "byteOffset": 24
    },
    {
      "name": "object3_1_0_positions",
      "componentType": 5126,
      "count": 24,
      "min": [
        -0.01054420042783022,
        0.3229452669620514,
        -0.009415349923074245
      ],
      "max": [
        0.008873029612004757,
        0.6958855986595154,
        0.009779360145330429
      ],
      "type": "VEC3",
      "bufferView": 0,
      "byteOffset": 432
    },
    {
      "name": "object3_1_0_normals",
      "componentType": 5126,
      "count": 24,
      "min": [
        -0.9409922361373901,
        -0.7918212413787842,
        -0.9815869331359863
      ],
      "max": [
        0.9409922361373901,
        0.7918212413787842,
        0.9815869331359863
      ],
      "type": "VEC3",
      "bufferView": 1,
      "byteOffset": 432
    },
    {
      "name": "object3_1_0_texcoords",
      "componentType": 5126,
      "count": 24,
      "min": [
        0,
        0
      ],
      "max": [
        1,
        1
      ],
      "type": "VEC2",
      "bufferView": 2,
      "byteOffset": 288
    },
    {
      "name": "object3_1_0_indices",
      "componentType": 5123,
      "count": 24,
      "min": [
        0
      ],
      "max": [
        23
      ],
      "type": "SCALAR",
      "bufferView": 3,
      "byteOffset": 72
    },
    {
      "name": "object4_1_0_positions",
      "componentType": 5126,
      "count": 108,
      "min": [
        -0.04310275986790657,
        0.5127381086349487,
        -0.026093030348420143
      ],
      "max": [
        0.030612289905548096,
        0.8276208639144897,
        0.04222644120454788
      ],
      "type": "VEC3",
      "bufferView": 0,
      "byteOffset": 720
    },
    {
      "name": "object4_1_0_normals",
      "componentType": 5126,
      "count": 108,
      "min": [
        -0.866155743598938,
        -0.8998574614524841,
        -0.999541699886322
      ],
      "max": [
        0.866155743598938,
        0.8998574614524841,
        0.999541699886322
      ],
      "type": "VEC3",
      "bufferView": 1,
      "byteOffset": 720
    },
    {
      "name": "object4_1_0_texcoords",
      "componentType": 5126,
      "count": 108,
      "min": [
        0,
        0
      ],
      "max": [
        1,
        1
      ],
      "type": "VEC2",
      "bufferView": 2,
      "byteOffset": 480
    },
    {
      "name": "object4_1_0_indices",
      "componentType": 5123,
      "count": 144,
      "min": [
        0
      ],
      "max": [
        107
      ],
      "type": "SCALAR",
      "bufferView": 3,
      "byteOffset": 120
    }
  ],
  "asset": {
    "generator": "obj2gltf",
    "version": "2.0"
  },
  "buffers": [
    {
      "name": "Prop_Cattail_2",
      "byteLength": 5784,
      "uri": "data:application/octet-stream;base64,"
    }
  ],
  "bufferViews": [
    {
      "name": "bufferView_0",
      "buffer": 0,
      "byteLength": 2016,
      "byteOffset": 0,
      "byteStride": 12,
      "target": 34962
    },
    {
      "name": "bufferView_1",
      "buffer": 0,
      "byteLength": 2016,
      "byteOffset": 2016,
      "byteStride": 12,
      "target": 34962
    },
    {
      "name": "bufferView_2",
      "buffer": 0,
      "byteLength": 1344,
      "byteOffset": 4032,
      "byteStride": 8,
      "target": 34962
    },
    {
      "name": "bufferView_3",
      "buffer": 0,
      "byteLength": 408,
      "byteOffset": 5376,
      "target": 34963
    }
  ],
  "materials": [
    {
      "name": "Oak_Leaves",
      "pbrMetallicRoughness": {
        "baseColorFactor": [
          0.3216,
          0.5412,
          0.1569,
          1
        ],
        "metallicFactor": 0,
        "roughnessFactor": 1
      },
      "emissiveFactor": [
        0,
        0,
        0
      ],
      "alphaMode": "OPAQUE",
      "doubleSided": false
    },
    {
      "name": "Cattail",
      "pbrMetallicRoughness": {
        "baseColorFactor": [
          0.7059,
          0.4078,
          0.2784,
          1
        ],
        "metallicFactor": 0,
        "roughnessFactor": 1
      },
      "emissiveFactor": [
        0,
        0,
        0
      ],
      "alphaMode": "OPAQUE",
      "doubleSided": false
    }
  ],
  "meshes": [
    {
      "name": "object1_1",
      "primitives": [
        {
          "attributes": {
            "POSITION": 0,
            "NORMAL": 1,
            "TEXCOORD_0": 2
          },
          "indices": 3,
          "material": 0,
          "mode": 4
        }
      ]
    },
    {
      "name": "object2_1",
      "primitives": [
        {
          "attributes": {
            "POSITION": 4,
            "NORMAL": 5,
            "TEXCOORD_0": 6
          },
          "indices": 7,
          "material": 0,
          "mode": 4
        }
      ]
    },
    {
      "name": "object3_1",
      "primitives": [
        {
          "attributes": {
            "POSITION": 8,
            "NORMAL": 9,
            "TEXCOORD_0": 10
          },
          "indices": 11,
          "material": 0,
          "mode": 4
        }
      ]
    },
    {
      "name": "object4_1",
      "primitives": [
        {
          "attributes": {
            "POSITION": 12,
            "NORMAL": 13,
            "TEXCOORD_0": 14
          },
          "indices": 15,
          "material": 1,
          "mode": 4
        }
      ]
    }
  ],
  "nodes": [
    {
      "name": "object1",
      "mesh": 0
    },
    {
      "name": "object2",
      "mesh": 1
    },
    {
      "name": "object3",
      "mesh": 2
    },
    {
      "name": "object4",
      "mesh": 3
    }
  ],
  "scene": 0,
  "scenes": [
    {
      "nodes": [
        0,
        1,
        2,
        3
      ]
    }
  ]
}
