{
  "accessors": [
    {
      "name": "object1_1_0_positions",
      "componentType": 5126,
      "count": 134,
      "min": [
        -0.21650634706020355,
        0,
        -0.25
      ],
      "max": [
        0.21650634706020355,
        0.5958860516548157,
        0.25
      ],
      "type": "VEC3",
      "bufferView": 0,
      "byteOffset": 0
    },
    {
      "name": "object1_1_0_normals",
      "componentType": 5126,
      "count": 134,
      "min": [
        -0.9994794726371765,
        -1,
        -0.865953266620636
      ],
      "max": [
        0.9994794726371765,
        0.9980675578117371,
        0.8658580183982849
      ],
      "type": "VEC3",
      "bufferView": 1,
      "byteOffset": 0
    },
    {
      "name": "object1_1_0_texcoords",
      "componentType": 5126,
      "count": 134,
      "min": [
        0,
        0
      ],
      "max": [
        1,
        1
      ],
      "type": "VEC2",
      "bufferView": 2,
      "byteOffset": 0
    },
    {
      "name": "object1_1_0_indices",
      "componentType": 5123,
      "count": 258,
      "min": [
        0
      ],
      "max": [
        133
      ],
      "type": "SCALAR",
      "bufferView": 3,
      "byteOffset": 0
    },
    {
      "name": "object2_1_0_positions",
      "componentType": 5126,
      "count": 73,
      "min": [
        -0.20054996013641357,
        0,
        -0.231575146317482
      ],
      "max": [
        0.20054996013641357,
        0.550000011920929,
        0.231575146317482
      ],
      "type": "VEC3",
      "bufferView": 0,
      "byteOffset": 1608
    },
    {
      "name": "object2_1_0_normals",
      "componentType": 5126,
      "count": 73,
      "min": [
        -0.9994794726371765,
        -1,
        -0.9449893236160278
      ],
      "max": [
        0.9994794726371765,
        1,
        0.9213017225265503
      ],
      "type": "VEC3",
      "bufferView": 1,
      "byteOffset": 1608
    },
    {
      "name": "object2_1_0_texcoords",
      "componentType": 5126,
      "count": 73,
      "min": [
        0,
        0
      ],
      "max": [
        1,
        1
      ],
      "type": "VEC2",
      "bufferView": 2,
      "byteOffset": 1072
    },
    {
      "name": "object2_1_0_indices",
      "componentType": 5123,
      "count": 144,
      "min": [
        0
      ],
      "max": [
        72
      ],
      "type": "SCALAR",
      "bufferView": 3,
      "byteOffset": 516
    }
  ],
  "asset": {
    "generator": "obj2gltf",
    "version": "2.0"
  },
  "buffers": [
    {
      "name": "Prop_Stump",
      "byteLength": 7428,
      "uri": "data:application/octet-stream;base64,"
    }
  ],
  "bufferViews": [
    {
      "name": "bufferView_0",
      "buffer": 0,
      "byteLength": 2484,
      "byteOffset": 0,
      "byteStride": 12,
      "target": 34962
    },
    {
      "name": "bufferView_1",
      "buffer": 0,
      "byteLength": 2484,
      "byteOffset": 2484,
      "byteStride": 12,
      "target": 34962
    },
    {
      "name": "bufferView_2",
      "buffer": 0,
      "byteLength": 1656,
      "byteOffset": 4968,
      "byteStride": 8,
      "target": 34962
    },
    {
      "name": "bufferView_3",
      "buffer": 0,
      "byteLength": 804,
      "byteOffset": 6624,
      "target": 34963
    }
  ],
  "materials": [
    {
      "name": "Wood_Dark",
      "pbrMetallicRoughness": {
        "baseColorFactor": [
          0.5176,
          0.4196,
          0.3333,
          1
        ],
        "metallicFactor": 0,
        "roughnessFactor": 1
      },
      "emissiveFactor": [
        0,
        0,
        0
      ],
      "alphaMode": "OPAQUE",
      "doubleSided": false
    },
    {
      "name": "Wood_Light",
      "pbrMetallicRoughness": {
        "baseColorFactor": [
          0.7373,
          0.6314,
          0.4627,
          1
        ],
        "metallicFactor": 0,
        "roughnessFactor": 1
      },
      "emissiveFactor": [
        0,
        0,
        0
      ],
      "alphaMode": "OPAQUE",
      "doubleSided": false
    }
  ],
  "meshes": [
    {
      "name": "object1_1",
      "primitives": [
        {
          "attributes": {
            "POSITION": 0,
            "NORMAL": 1,
            "TEXCOORD_0": 2
          },
          "indices": 3,
          "material": 0,
          "mode": 4
        }
      ]
    },
    {
      "name": "object2_1",
      "primitives": [
        {
          "attributes": {
            "POSITION": 4,
            "NORMAL": 5,
            "TEXCOORD_0": 6
          },
          "indices": 7,
          "material": 1,
          "mode": 4
        }
      ]
    }
  ],
  "nodes": [
    {
      "name": "object1",
      "mesh": 0
    },
    {
      "name": "object2",
      "mesh": 1
    }
  ],
  "scene": 0,
  "scenes": [
    {
      "nodes": [
        0,
        1
      ]
    }
  ]
}
