{
  "accessors": [
    {
      "name": "object1_1_0_positions",
      "componentType": 5126,
      "count": 24,
      "min": [
        -0.004922050051391125,
        0,
        -0.009036189876496792
      ],
      "max": [
        0.008943960070610046,
        0.24735449254512787,
        0.004960179794579744
      ],
      "type": "VEC3",
      "bufferView": 0,
      "byteOffset": 0
    },
    {
      "name": "object1_1_0_normals",
      "componentType": 5126,
      "count": 24,
      "min": [
        -0.9431070685386658,
        -0.9999990463256836,
        -0.9828452467918396
      ],
      "max": [
        0.9431070685386658,
        0.9999990463256836,
        0.9828452467918396
      ],
      "type": "VEC3",
      "bufferView": 1,
      "byteOffset": 0
    },
    {
      "name": "object1_1_0_texcoords",
      "componentType": 5126,
      "count": 24,
      "min": [
        0,
        0
      ],
      "max": [
        1,
        1
      ],
      "type": "VEC2",
      "bufferView": 2,
      "byteOffset": 0
    },
    {
      "name": "object1_1_0_indices",
      "componentType": 5123,
      "count": 24,
      "min": [
        0
      ],
      "max": [
        23
      ],
      "type": "SCALAR",
      "bufferView": 3,
      "byteOffset": 0
    },
    {
      "name": "object2_1_0_positions",
      "componentType": 5126,
      "count": 24,
      "min": [
        -0.03776174038648605,
        0.23968152701854706,
        -0.00903513003140688
      ],
      "max": [
        0.008943960070610046,
        0.5148125886917114,
        0.03323056921362877
      ],
      "type": "VEC3",
      "bufferView": 0,
      "byteOffset": 288
    },
    {
      "name": "object2_1_0_normals",
      "componentType": 5126,
      "count": 24,
      "min": [
        -0.9343583583831787,
        -0.7880227565765381,
        -0.9760781526565552
      ],
      "max": [
        0.9343583583831787,
        0.7880227565765381,
        0.9760781526565552
      ],
      "type": "VEC3",
      "bufferView": 1,
      "byteOffset": 288
    },
    {
      "name": "object2_1_0_texcoords",
      "componentType": 5126,
      "count": 24,
      "min": [
        0,
        0
      ],
      "max": [
        1,
        1
      ],
      "type": "VEC2",
      "bufferView": 2,
      "byteOffset": 192
    },
    {
      "name": "object2_1_0_indices",
      "componentType": 5123,
      "count": 24,
      "min": [
        0
      ],
      "max": [
        23
      ],
      "type": "SCALAR",
      "bufferView": 3,
      "byteOffset": 48
    },
    {
      "name": "object3_1_0_positions",
      "componentType": 5126,
      "count": 12,
      "min": [
        -0.05678047984838486,
        0.5071295499801636,
        0.022023020312190056
      ],
      "max": [
        -0.026181230321526527,
        0.7052900195121765,
        0.05302191898226738
      ],
      "type": "VEC3",
      "bufferView": 0,
      "byteOffset": 576
    },
    {
      "name": "object3_1_0_normals",
      "componentType": 5126,
      "count": 12,
      "min": [
        -0.7485774755477905,
        -0.7880227565765381,
        -0.9688588380813599
      ],
      "max": [
        0.934625506401062,
        0.12316732853651047,
        0.6416523456573486
      ],
      "type": "VEC3",
      "bufferView": 1,
      "byteOffset": 576
    },
    {
      "name": "object3_1_0_texcoords",
      "componentType": 5126,
      "count": 12,
      "min": [
        0,
        0
      ],
      "max": [
        1,
        1
      ],
      "type": "VEC2",
      "bufferView": 2,
      "byteOffset": 384
    },
    {
      "name": "object3_1_0_indices",
      "componentType": 5123,
      "count": 12,
      "min": [
        0
      ],
      "max": [
        11
      ],
      "type": "SCALAR",
      "bufferView": 3,
      "byteOffset": 96
    },
    {
      "name": "object4_1_0_positions",
      "componentType": 5126,
      "count": 108,
      "min": [
        -0.07268449664115906,
        0.4388265013694763,
        -0.000463480013422668
      ],
      "max": [
        0.0010603000409901142,
        0.6442546248435974,
        0.06616272032260895
      ],
      "type": "VEC3",
      "bufferView": 0,
      "byteOffset": 720
    },
    {
      "name": "object4_1_0_normals",
      "componentType": 5126,
      "count": 108,
      "min": [
        -0.8637108206748962,
        -0.9646924734115601,
        -0.9926025867462158
      ],
      "max": [
        0.8637108206748962,
        0.9646924734115601,
        0.9926025867462158
      ],
      "type": "VEC3",
      "bufferView": 1,
      "byteOffset": 720
    },
    {
      "name": "object4_1_0_texcoords",
      "componentType": 5126,
      "count": 108,
      "min": [
        0,
        0
      ],
      "max": [
        1,
        1
      ],
      "type": "VEC2",
      "bufferView": 2,
      "byteOffset": 480
    },
    {
      "name": "object4_1_0_indices",
      "componentType": 5123,
      "count": 144,
      "min": [
        0
      ],
      "max": [
        107
      ],
      "type": "SCALAR",
      "bufferView": 3,
      "byteOffset": 120
    }
  ],
  "asset": {
    "generator": "obj2gltf",
    "version": "2.0"
  },
  "buffers": [
    {
      "name": "Prop_Cattail_1",
      "byteLength": 5784,
      "uri": "data:application/octet-stream;base64,"
    }
  ],
  "bufferViews": [
    {
      "name": "bufferView_0",
      "buffer": 0,
      "byteLength": 2016,
      "byteOffset": 0,
      "byteStride": 12,
      "target": 34962
    },
    {
      "name": "bufferView_1",
      "buffer": 0,
      "byteLength": 2016,
      "byteOffset": 2016,
      "byteStride": 12,
      "target": 34962
    },
    {
      "name": "bufferView_2",
      "buffer": 0,
      "byteLength": 1344,
      "byteOffset": 4032,
      "byteStride": 8,
      "target": 34962
    },
    {
      "name": "bufferView_3",
      "buffer": 0,
      "byteLength": 408,
      "byteOffset": 5376,
      "target": 34963
    }
  ],
  "materials": [
    {
      "name": "Oak_Leaves",
      "pbrMetallicRoughness": {
        "baseColorFactor": [
          0.3216,
          0.5412,
          0.1569,
          1
        ],
        "metallicFactor": 0,
        "roughnessFactor": 1
      },
      "emissiveFactor": [
        0,
        0,
        0
      ],
      "alphaMode": "OPAQUE",
      "doubleSided": false
    },
    {
      "name": "Cattail",
      "pbrMetallicRoughness": {
        "baseColorFactor": [
          0.7059,
          0.4078,
          0.2784,
          1
        ],
        "metallicFactor": 0,
        "roughnessFactor": 1
      },
      "emissiveFactor": [
        0,
        0,
        0
      ],
      "alphaMode": "OPAQUE",
      "doubleSided": false
    }
  ],
  "meshes": [
    {
      "name": "object1_1",
      "primitives": [
        {
          "attributes": {
            "POSITION": 0,
            "NORMAL": 1,
            "TEXCOORD_0": 2
          },
          "indices": 3,
          "material": 0,
          "mode": 4
        }
      ]
    },
    {
      "name": "object2_1",
      "primitives": [
        {
          "attributes": {
            "POSITION": 4,
            "NORMAL": 5,
            "TEXCOORD_0": 6
          },
          "indices": 7,
          "material": 0,
          "mode": 4
        }
      ]
    },
    {
      "name": "object3_1",
      "primitives": [
        {
          "attributes": {
            "POSITION": 8,
            "NORMAL": 9,
            "TEXCOORD_0": 10
          },
          "indices": 11,
          "material": 0,
          "mode": 4
        }
      ]
    },
    {
      "name": "object4_1",
      "primitives": [
        {
          "attributes": {
            "POSITION": 12,
            "NORMAL": 13,
            "TEXCOORD_0": 14
          },
          "indices": 15,
          "material": 1,
          "mode": 4
        }
      ]
    }
  ],
  "nodes": [
    {
      "name": "object1",
      "mesh": 0
    },
    {
      "name": "object2",
      "mesh": 1
    },
    {
      "name": "object3",
      "mesh": 2
    },
    {
      "name": "object4",
      "mesh": 3
    }
  ],
  "scene": 0,
  "scenes": [
    {
      "nodes": [
        0,
        1,
        2,
        3
      ]
    }
  ]
}
