{
  "accessors": [
    {
      "name": "object1_1_0_positions",
      "componentType": 5126,
      "count": 148,
      "min": [
        -0.9086098074913025,
        0.0024999999441206455,
        -0.44304901361465454
      ],
      "max": [
        0.9024999737739563,
        0.140625,
        0.36808261275291443
      ],
      "type": "VEC3",
      "bufferView": 0,
      "byteOffset": 0
    },
    {
      "name": "object1_1_0_normals",
      "componentType": 5126,
      "count": 148,
      "min": [
        -0.601091206073761,
        -0.9999058246612549,
        -0.8756361603736877
      ],
      "max": [
        0.5435056686401367,
        0.9999555945396423,
        0.8764408230781555
      ],
      "type": "VEC3",
      "bufferView": 1,
      "byteOffset": 0
    },
    {
      "name": "object1_1_0_texcoords",
      "componentType": 5126,
      "count": 148,
      "min": [
        0,
        0
      ],
      "max": [
        1,
        1
      ],
      "type": "VEC2",
      "bufferView": 2,
      "byteOffset": 0
    },
    {
      "name": "object1_1_0_indices",
      "componentType": 5123,
      "count": 228,
      "min": [
        0
      ],
      "max": [
        147
      ],
      "type": "SCALAR",
      "bufferView": 3,
      "byteOffset": 0
    },
    {
      "name": "object1_1_1_positions",
      "componentType": 5126,
      "count": 21,
      "min": [
        -0.9086098074913025,
        0.0024999999441206455,
        -0.44304901361465454
      ],
      "max": [
        0.9024999737739563,
        0.13249999284744263,
        0.36808261275291443
      ],
      "type": "VEC3",
      "bufferView": 0,
      "byteOffset": 1776
    },
    {
      "name": "object1_1_1_normals",
      "componentType": 5126,
      "count": 21,
      "min": [
        -0.9805806875228882,
        0,
        0
      ],
      "max": [
        1,
        0,
        0.3018916845321655
      ],
      "type": "VEC3",
      "bufferView": 1,
      "byteOffset": 1776
    },
    {
      "name": "object1_1_1_texcoords",
      "componentType": 5126,
      "count": 21,
      "min": [
        0,
        0
      ],
      "max": [
        1,
        1
      ],
      "type": "VEC2",
      "bufferView": 2,
      "byteOffset": 1184
    },
    {
      "name": "object1_1_1_indices",
      "componentType": 5123,
      "count": 54,
      "min": [
        0
      ],
      "max": [
        20
      ],
      "type": "SCALAR",
      "bufferView": 3,
      "byteOffset": 456
    }
  ],
  "asset": {
    "generator": "obj2gltf",
    "version": "2.0"
  },
  "buffers": [
    {
      "name": "Prop_Branch_2",
      "byteLength": 5972,
      "uri": "data:application/octet-stream;base64,"
    }
  ],
  "bufferViews": [
    {
      "name": "bufferView_0",
      "buffer": 0,
      "byteLength": 2028,
      "byteOffset": 0,
      "byteStride": 12,
      "target": 34962
    },
    {
      "name": "bufferView_1",
      "buffer": 0,
      "byteLength": 2028,
      "byteOffset": 2028,
      "byteStride": 12,
      "target": 34962
    },
    {
      "name": "bufferView_2",
      "buffer": 0,
      "byteLength": 1352,
      "byteOffset": 4056,
      "byteStride": 8,
      "target": 34962
    },
    {
      "name": "bufferView_3",
      "buffer": 0,
      "byteLength": 564,
      "byteOffset": 5408,
      "target": 34963
    }
  ],
  "materials": [
    {
      "name": "Wood_Dark",
      "pbrMetallicRoughness": {
        "baseColorFactor": [
          0.5176,
          0.4196,
          0.3333,
          1
        ],
        "metallicFactor": 0,
        "roughnessFactor": 1
      },
      "emissiveFactor": [
        0,
        0,
        0
      ],
      "alphaMode": "OPAQUE",
      "doubleSided": false
    },
    {
      "name": "Wood_Light",
      "pbrMetallicRoughness": {
        "baseColorFactor": [
          0.7373,
          0.6314,
          0.4627,
          1
        ],
        "metallicFactor": 0,
        "roughnessFactor": 1
      },
      "emissiveFactor": [
        0,
        0,
        0
      ],
      "alphaMode": "OPAQUE",
      "doubleSided": false
    }
  ],
  "meshes": [
    {
      "name": "object1_1",
      "primitives": [
        {
          "attributes": {
            "POSITION": 0,
            "NORMAL": 1,
            "TEXCOORD_0": 2
          },
          "indices": 3,
          "material": 0,
          "mode": 4
        },
        {
          "attributes": {
            "POSITION": 4,
            "NORMAL": 5,
            "TEXCOORD_0": 6
          },
          "indices": 7,
          "material": 1,
          "mode": 4
        }
      ]
    }
  ],
  "nodes": [
    {
      "name": "object1",
      "mesh": 0
    }
  ],
  "scene": 0,
  "scenes": [
    {
      "nodes": [
        0
      ]
    }
  ]
}
