{
  "accessors": [
    {
      "name": "object1_1_0_positions",
      "componentType": 5126,
      "count": 126,
      "min": [
        -0.5,
        -0.05000000074505806,
        -0.5
      ],
      "max": [
        0.5,
        0.5,
        0.5
      ],
      "type": "VEC3",
      "bufferView": 0,
      "byteOffset": 0
    },
    {
      "name": "object1_1_0_normals",
      "componentType": 5126,
      "count": 126,
      "min": [
        -1,
        -1,
        -0.9191450476646423
      ],
      "max": [
        0.9899494647979736,
        1,
        0.9486833214759827
      ],
      "type": "VEC3",
      "bufferView": 1,
      "byteOffset": 0
    },
    {
      "name": "object1_1_0_texcoords",
      "componentType": 5126,
      "count": 126,
      "min": [
        0,
        0
      ],
      "max": [
        1,
        1
      ],
      "type": "VEC2",
      "bufferView": 2,
      "byteOffset": 0
    },
    {
      "name": "object1_1_0_indices",
      "componentType": 5123,
      "count": 198,
      "min": [
        0
      ],
      "max": [
        125
      ],
      "type": "SCALAR",
      "bufferView": 3,
      "byteOffset": 0
    }
  ],
  "asset": {
    "generator": "obj2gltf",
    "version": "2.0"
  },
  "buffers": [
    {
      "name": "Prop_Rock_2",
      "byteLength": 4428,
      "uri": "data:application/octet-stream;base64,"
    }
  ],
  "bufferViews": [
    {
      "name": "bufferView_0",
      "buffer": 0,
      "byteLength": 1512,
      "byteOffset": 0,
      "byteStride": 12,
      "target": 34962
    },
    {
      "name": "bufferView_1",
      "buffer": 0,
      "byteLength": 1512,
      "byteOffset": 1512,
      "byteStride": 12,
      "target": 34962
    },
    {
      "name": "bufferView_2",
      "buffer": 0,
      "byteLength": 1008,
      "byteOffset": 3024,
      "byteStride": 8,
      "target": 34962
    },
    {
      "name": "bufferView_3",
      "buffer": 0,
      "byteLength": 396,
      "byteOffset": 4032,
      "target": 34963
    }
  ],
  "materials": [
    {
      "name": "Rock",
      "pbrMetallicRoughness": {
        "baseColorFactor": [
          0.6314,
          0.6235,
          0.6118,
          1
        ],
        "metallicFactor": 0,
        "roughnessFactor": 1
      },
      "emissiveFactor": [
        0,
        0,
        0
      ],
      "alphaMode": "OPAQUE",
      "doubleSided": false
    }
  ],
  "meshes": [
    {
      "name": "object1_1",
      "primitives": [
        {
          "attributes": {
            "POSITION": 0,
            "NORMAL": 1,
            "TEXCOORD_0": 2
          },
          "indices": 3,
          "material": 0,
          "mode": 4
        }
      ]
    }
  ],
  "nodes": [
    {
      "name": "object1",
      "mesh": 0
    }
  ],
  "scene": 0,
  "scenes": [
    {
      "nodes": [
        0
      ]
    }
  ]
}
