{
  "accessors": [
    {
      "name": "object1_1_0_positions",
      "componentType": 5126,
      "count": 42,
      "min": [
        -0.5,
        0.2750000059604645,
        0.4749999940395355
      ],
      "max": [
        0.5,
        0.42500001192092896,
        0.5249999761581421
      ],
      "type": "VEC3",
      "bufferView": 0,
      "byteOffset": 0
    },
    {
      "name": "object1_1_0_normals",
      "componentType": 5126,
      "count": 42,
      "min": [
        -1,
        -1,
        -1
      ],
      "max": [
        1,
        1,
        1
      ],
      "type": "VEC3",
      "bufferView": 1,
      "byteOffset": 0
    },
    {
      "name": "object1_1_0_texcoords",
      "componentType": 5126,
      "count": 42,
      "min": [
        0,
        0
      ],
      "max": [
        1,
        1
      ],
      "type": "VEC2",
      "bufferView": 2,
      "byteOffset": 0
    },
    {
      "name": "object1_1_0_indices",
      "componentType": 5123,
      "count": 72,
      "min": [
        0
      ],
      "max": [
        41
      ],
      "type": "SCALAR",
      "bufferView": 3,
      "byteOffset": 0
    },
    {
      "name": "object2_1_0_positions",
      "componentType": 5126,
      "count": 60,
      "min": [
        -0.5021875500679016,
        0.531432032585144,
        0.4749999940395355
      ],
      "max": [
        0.5021095275878906,
        0.7134329080581665,
        0.5249999761581421
      ],
      "type": "VEC3",
      "bufferView": 0,
      "byteOffset": 504
    },
    {
      "name": "object2_1_0_normals",
      "componentType": 5126,
      "count": 60,
      "min": [
        -0.9994853734970093,
        -0.9994853734970093,
        -1
      ],
      "max": [
        0.9994853734970093,
        0.9994853734970093,
        1
      ],
      "type": "VEC3",
      "bufferView": 1,
      "byteOffset": 504
    },
    {
      "name": "object2_1_0_texcoords",
      "componentType": 5126,
      "count": 60,
      "min": [
        0,
        0
      ],
      "max": [
        1,
        1
      ],
      "type": "VEC2",
      "bufferView": 2,
      "byteOffset": 336
    },
    {
      "name": "object2_1_0_indices",
      "componentType": 5123,
      "count": 108,
      "min": [
        0
      ],
      "max": [
        59
      ],
      "type": "SCALAR",
      "bufferView": 3,
      "byteOffset": 144
    }
  ],
  "asset": {
    "generator": "obj2gltf",
    "version": "2.0"
  },
  "buffers": [
    {
      "name": "Prop_Fence_Boards_1",
      "byteLength": 3624,
      "uri": "data:application/octet-stream;base64,"
    }
  ],
  "bufferViews": [
    {
      "name": "bufferView_0",
      "buffer": 0,
      "byteLength": 1224,
      "byteOffset": 0,
      "byteStride": 12,
      "target": 34962
    },
    {
      "name": "bufferView_1",
      "buffer": 0,
      "byteLength": 1224,
      "byteOffset": 1224,
      "byteStride": 12,
      "target": 34962
    },
    {
      "name": "bufferView_2",
      "buffer": 0,
      "byteLength": 816,
      "byteOffset": 2448,
      "byteStride": 8,
      "target": 34962
    },
    {
      "name": "bufferView_3",
      "buffer": 0,
      "byteLength": 360,
      "byteOffset": 3264,
      "target": 34963
    }
  ],
  "materials": [
    {
      "name": "Wood_Light",
      "pbrMetallicRoughness": {
        "baseColorFactor": [
          0.7373,
          0.6314,
          0.4627,
          1
        ],
        "metallicFactor": 0,
        "roughnessFactor": 1
      },
      "emissiveFactor": [
        0,
        0,
        0
      ],
      "alphaMode": "OPAQUE",
      "doubleSided": false
    }
  ],
  "meshes": [
    {
      "name": "object1_1",
      "primitives": [
        {
          "attributes": {
            "POSITION": 0,
            "NORMAL": 1,
            "TEXCOORD_0": 2
          },
          "indices": 3,
          "material": 0,
          "mode": 4
        }
      ]
    },
    {
      "name": "object2_1",
      "primitives": [
        {
          "attributes": {
            "POSITION": 4,
            "NORMAL": 5,
            "TEXCOORD_0": 6
          },
          "indices": 7,
          "material": 0,
          "mode": 4
        }
      ]
    }
  ],
  "nodes": [
    {
      "name": "object1",
      "mesh": 0
    },
    {
      "name": "object2",
      "mesh": 1
    }
  ],
  "scene": 0,
  "scenes": [
    {
      "nodes": [
        0,
        1
      ]
    }
  ]
}
