{
  "accessors": [
    {
      "name": "object1_1_0_positions",
      "componentType": 5126,
      "count": 38,
      "min": [
        -0.08660253882408142,
        0,
        -0.10000000149011612
      ],
      "max": [
        0.08660253882408142,
        0.4000000059604645,
        0.10000000149011612
      ],
      "type": "VEC3",
      "bufferView": 0,
      "byteOffset": 0
    },
    {
      "name": "object1_1_0_normals",
      "componentType": 5126,
      "count": 38,
      "min": [
        -1,
        -1,
        -0.8660253882408142
      ],
      "max": [
        1,
        1,
        0.8660253882408142
      ],
      "type": "VEC3",
      "bufferView": 1,
      "byteOffset": 0
    },
    {
      "name": "object1_1_0_texcoords",
      "componentType": 5126,
      "count": 38,
      "min": [
        0,
        0
      ],
      "max": [
        1,
        1
      ],
      "type": "VEC2",
      "bufferView": 2,
      "byteOffset": 0
    },
    {
      "name": "object1_1_0_indices",
      "componentType": 5123,
      "count": 72,
      "min": [
        0
      ],
      "max": [
        37
      ],
      "type": "SCALAR",
      "bufferView": 3,
      "byteOffset": 0
    },
    {
      "name": "object2_1_0_positions",
      "componentType": 5126,
      "count": 97,
      "min": [
        -0.4330126941204071,
        0.30000001192092896,
        -0.5
      ],
      "max": [
        0.4330126941204071,
        2.299999952316284,
        0.5
      ],
      "type": "VEC3",
      "bufferView": 0,
      "byteOffset": 456
    },
    {
      "name": "object2_1_0_normals",
      "componentType": 5126,
      "count": 97,
      "min": [
        -0.9962709546089172,
        -1,
        -0.8627959489822388
      ],
      "max": [
        0.9962709546089172,
        0.6546536684036255,
        0.8627959489822388
      ],
      "type": "VEC3",
      "bufferView": 1,
      "byteOffset": 456
    },
    {
      "name": "object2_1_0_texcoords",
      "componentType": 5126,
      "count": 97,
      "min": [
        0,
        0
      ],
      "max": [
        1,
        1
      ],
      "type": "VEC2",
      "bufferView": 2,
      "byteOffset": 304
    },
    {
      "name": "object2_1_0_indices",
      "componentType": 5123,
      "count": 144,
      "min": [
        0
      ],
      "max": [
        96
      ],
      "type": "SCALAR",
      "bufferView": 3,
      "byteOffset": 144
    }
  ],
  "asset": {
    "generator": "obj2gltf",
    "version": "2.0"
  },
  "buffers": [
    {
      "name": "Prop_Tree_Cedar_2",
      "byteLength": 4752,
      "uri": "data:application/octet-stream;base64,"
    }
  ],
  "bufferViews": [
    {
      "name": "bufferView_0",
      "buffer": 0,
      "byteLength": 1620,
      "byteOffset": 0,
      "byteStride": 12,
      "target": 34962
    },
    {
      "name": "bufferView_1",
      "buffer": 0,
      "byteLength": 1620,
      "byteOffset": 1620,
      "byteStride": 12,
      "target": 34962
    },
    {
      "name": "bufferView_2",
      "buffer": 0,
      "byteLength": 1080,
      "byteOffset": 3240,
      "byteStride": 8,
      "target": 34962
    },
    {
      "name": "bufferView_3",
      "buffer": 0,
      "byteLength": 432,
      "byteOffset": 4320,
      "target": 34963
    }
  ],
  "materials": [
    {
      "name": "Wood_Dark",
      "pbrMetallicRoughness": {
        "baseColorFactor": [
          0.5176,
          0.4196,
          0.3333,
          1
        ],
        "metallicFactor": 0,
        "roughnessFactor": 1
      },
      "emissiveFactor": [
        0,
        0,
        0
      ],
      "alphaMode": "OPAQUE",
      "doubleSided": false
    },
    {
      "name": "Cedar_Leaves",
      "pbrMetallicRoughness": {
        "baseColorFactor": [
          0.1451,
          0.2706,
          0.1451,
          1
        ],
        "metallicFactor": 0,
        "roughnessFactor": 1
      },
      "emissiveFactor": [
        0,
        0,
        0
      ],
      "alphaMode": "OPAQUE",
      "doubleSided": false
    }
  ],
  "meshes": [
    {
      "name": "object1_1",
      "primitives": [
        {
          "attributes": {
            "POSITION": 0,
            "NORMAL": 1,
            "TEXCOORD_0": 2
          },
          "indices": 3,
          "material": 0,
          "mode": 4
        }
      ]
    },
    {
      "name": "object2_1",
      "primitives": [
        {
          "attributes": {
            "POSITION": 4,
            "NORMAL": 5,
            "TEXCOORD_0": 6
          },
          "indices": 7,
          "material": 1,
          "mode": 4
        }
      ]
    }
  ],
  "nodes": [
    {
      "name": "object1",
      "mesh": 0
    },
    {
      "name": "object2",
      "mesh": 1
    }
  ],
  "scene": 0,
  "scenes": [
    {
      "nodes": [
        0,
        1
      ]
    }
  ]
}
