{
  "accessors": [
    {
      "name": "object1_1_0_positions",
      "componentType": 5126,
      "count": 141,
      "min": [
        -0.45879989862442017,
        0,
        -0.5225321054458618
      ],
      "max": [
        0.3003194332122803,
        2.7883481979370117,
        0.35175222158432007
      ],
      "type": "VEC3",
      "bufferView": 0,
      "byteOffset": 0
    },
    {
      "name": "object1_1_0_normals",
      "componentType": 5126,
      "count": 141,
      "min": [
        -0.9995220303535461,
        -1,
        -0.945716381072998
      ],
      "max": [
        0.9995220303535461,
        0.9967290759086609,
        0.9566625356674194
      ],
      "type": "VEC3",
      "bufferView": 1,
      "byteOffset": 0
    },
    {
      "name": "object1_1_0_texcoords",
      "componentType": 5126,
      "count": 141,
      "min": [
        0,
        0
      ],
      "max": [
        1,
        1
      ],
      "type": "VEC2",
      "bufferView": 2,
      "byteOffset": 0
    },
    {
      "name": "object1_1_0_indices",
      "componentType": 5123,
      "count": 270,
      "min": [
        0
      ],
      "max": [
        140
      ],
      "type": "SCALAR",
      "bufferView": 3,
      "byteOffset": 0
    },
    {
      "name": "object2_1_0_positions",
      "componentType": 5126,
      "count": 180,
      "min": [
        -1.0114734172821045,
        2.2485339641571045,
        -1.1283447742462158
      ],
      "max": [
        0.28074073791503906,
        3.4133362770080566,
        0.2557201385498047
      ],
      "type": "VEC3",
      "bufferView": 0,
      "byteOffset": 1692
    },
    {
      "name": "object2_1_0_normals",
      "componentType": 5126,
      "count": 180,
      "min": [
        -0.9923950433731079,
        -0.9961137175559998,
        -0.8838756084442139
      ],
      "max": [
        0.9923950433731079,
        0.9961137175559998,
        0.8838756084442139
      ],
      "type": "VEC3",
      "bufferView": 1,
      "byteOffset": 1692
    },
    {
      "name": "object2_1_0_texcoords",
      "componentType": 5126,
      "count": 180,
      "min": [
        0,
        0
      ],
      "max": [
        1,
        1
      ],
      "type": "VEC2",
      "bufferView": 2,
      "byteOffset": 1128
    },
    {
      "name": "object2_1_0_indices",
      "componentType": 5123,
      "count": 276,
      "min": [
        0
      ],
      "max": [
        179
      ],
      "type": "SCALAR",
      "bufferView": 3,
      "byteOffset": 540
    },
    {
      "name": "object3_1_0_positions",
      "componentType": 5126,
      "count": 182,
      "min": [
        -0.7784767150878906,
        2.75,
        -0.7897797226905823
      ],
      "max": [
        1.0784766674041748,
        4.75,
        1.1897797584533691
      ],
      "type": "VEC3",
      "bufferView": 0,
      "byteOffset": 3852
    },
    {
      "name": "object3_1_0_normals",
      "componentType": 5126,
      "count": 182,
      "min": [
        -0.9897797107696533,
        -1,
        -0.9284766912460327
      ],
      "max": [
        0.9897797107696533,
        1,
        0.9284766912460327
      ],
      "type": "VEC3",
      "bufferView": 1,
      "byteOffset": 3852
    },
    {
      "name": "object3_1_0_texcoords",
      "componentType": 5126,
      "count": 182,
      "min": [
        0,
        0
      ],
      "max": [
        1,
        1
      ],
      "type": "VEC2",
      "bufferView": 2,
      "byteOffset": 2568
    },
    {
      "name": "object3_1_0_indices",
      "componentType": 5123,
      "count": 288,
      "min": [
        0
      ],
      "max": [
        181
      ],
      "type": "SCALAR",
      "bufferView": 3,
      "byteOffset": 1092
    }
  ],
  "asset": {
    "generator": "obj2gltf",
    "version": "2.0"
  },
  "buffers": [
    {
      "name": "Prop_Tree_Oak_1",
      "byteLength": 17764,
      "uri": "data:application/octet-stream;base64,"
    }
  ],
  "bufferViews": [
    {
      "name": "bufferView_0",
      "buffer": 0,
      "byteLength": 6036,
      "byteOffset": 0,
      "byteStride": 12,
      "target": 34962
    },
    {
      "name": "bufferView_1",
      "buffer": 0,
      "byteLength": 6036,
      "byteOffset": 6036,
      "byteStride": 12,
      "target": 34962
    },
    {
      "name": "bufferView_2",
      "buffer": 0,
      "byteLength": 4024,
      "byteOffset": 12072,
      "byteStride": 8,
      "target": 34962
    },
    {
      "name": "bufferView_3",
      "buffer": 0,
      "byteLength": 1668,
      "byteOffset": 16096,
      "target": 34963
    }
  ],
  "materials": [
    {
      "name": "Wood_Dark",
      "pbrMetallicRoughness": {
        "baseColorFactor": [
          0.5176,
          0.4196,
          0.3333,
          1
        ],
        "metallicFactor": 0,
        "roughnessFactor": 1
      },
      "emissiveFactor": [
        0,
        0,
        0
      ],
      "alphaMode": "OPAQUE",
      "doubleSided": false
    },
    {
      "name": "Oak_Leaves",
      "pbrMetallicRoughness": {
        "baseColorFactor": [
          0.3216,
          0.5412,
          0.1569,
          1
        ],
        "metallicFactor": 0,
        "roughnessFactor": 1
      },
      "emissiveFactor": [
        0,
        0,
        0
      ],
      "alphaMode": "OPAQUE",
      "doubleSided": false
    }
  ],
  "meshes": [
    {
      "name": "object1_1",
      "primitives": [
        {
          "attributes": {
            "POSITION": 0,
            "NORMAL": 1,
            "TEXCOORD_0": 2
          },
          "indices": 3,
          "material": 0,
          "mode": 4
        }
      ]
    },
    {
      "name": "object2_1",
      "primitives": [
        {
          "attributes": {
            "POSITION": 4,
            "NORMAL": 5,
            "TEXCOORD_0": 6
          },
          "indices": 7,
          "material": 1,
          "mode": 4
        }
      ]
    },
    {
      "name": "object3_1",
      "primitives": [
        {
          "attributes": {
            "POSITION": 8,
            "NORMAL": 9,
            "TEXCOORD_0": 10
          },
          "indices": 11,
          "material": 1,
          "mode": 4
        }
      ]
    }
  ],
  "nodes": [
    {
      "name": "object1",
      "mesh": 0
    },
    {
      "name": "object2",
      "mesh": 1
    },
    {
      "name": "object3",
      "mesh": 2
    }
  ],
  "scene": 0,
  "scenes": [
    {
      "nodes": [
        0,
        1,
        2
      ]
    }
  ]
}
