{
  "accessors": [
    {
      "name": "object1_1_0_positions",
      "componentType": 5126,
      "count": 60,
      "min": [
        0,
        -0.03500000014901161,
        -0.03563636168837547
      ],
      "max": [
        0.2654958963394165,
        0.2670024037361145,
        0.03563636168837547
      ],
      "type": "VEC3",
      "bufferView": 0,
      "byteOffset": 0
    },
    {
      "name": "object1_1_0_normals",
      "componentType": 5126,
      "count": 60,
      "min": [
        -0.711071789264679,
        -0.7905867099761963,
        -0.71778404712677
      ],
      "max": [
        0.8770245909690857,
        0.63972407579422,
        0.71778404712677
      ],
      "type": "VEC3",
      "bufferView": 1,
      "byteOffset": 0
    },
    {
      "name": "object1_1_0_texcoords",
      "componentType": 5126,
      "count": 60,
      "min": [
        0,
        0
      ],
      "max": [
        1,
        1
      ],
      "type": "VEC2",
      "bufferView": 2,
      "byteOffset": 0
    },
    {
      "name": "object1_1_0_indices",
      "componentType": 5123,
      "count": 60,
      "min": [
        0
      ],
      "max": [
        59
      ],
      "type": "SCALAR",
      "bufferView": 3,
      "byteOffset": 0
    },
    {
      "name": "object2_1_0_positions",
      "componentType": 5126,
      "count": 60,
      "min": [
        -0.13083253800868988,
        -0.03500000014901161,
        -0.2310214638710022
      ],
      "max": [
        0,
        0.2670024037361145,
        0
      ],
      "type": "VEC3",
      "bufferView": 0,
      "byteOffset": 720
    },
    {
      "name": "object2_1_0_normals",
      "componentType": 5126,
      "count": 60,
      "min": [
        -0.7211769819259644,
        -0.7905867099761963,
        -0.917650580406189
      ],
      "max": [
        0.9538319706916809,
        0.63972407579422,
        0.9505712389945984
      ],
      "type": "VEC3",
      "bufferView": 1,
      "byteOffset": 720
    },
    {
      "name": "object2_1_0_texcoords",
      "componentType": 5126,
      "count": 60,
      "min": [
        0,
        0
      ],
      "max": [
        1,
        1
      ],
      "type": "VEC2",
      "bufferView": 2,
      "byteOffset": 480
    },
    {
      "name": "object2_1_0_indices",
      "componentType": 5123,
      "count": 60,
      "min": [
        0
      ],
      "max": [
        59
      ],
      "type": "SCALAR",
      "bufferView": 3,
      "byteOffset": 120
    },
    {
      "name": "object3_1_0_positions",
      "componentType": 5126,
      "count": 60,
      "min": [
        -0.22090594470500946,
        -0.03500000014901161,
        0
      ],
      "max": [
        0,
        0.2670024037361145,
        0.14727063477039337
      ],
      "type": "VEC3",
      "bufferView": 0,
      "byteOffset": 1440
    },
    {
      "name": "object3_1_0_normals",
      "componentType": 5126,
      "count": 60,
      "min": [
        -0.9036480784416199,
        -0.7905867099761963,
        -0.9700374007225037
      ],
      "max": [
        0.9676408767700195,
        0.63972407579422,
        0.7473649978637695
      ],
      "type": "VEC3",
      "bufferView": 1,
      "byteOffset": 1440
    },
    {
      "name": "object3_1_0_texcoords",
      "componentType": 5126,
      "count": 60,
      "min": [
        0,
        0
      ],
      "max": [
        1,
        1
      ],
      "type": "VEC2",
      "bufferView": 2,
      "byteOffset": 960
    },
    {
      "name": "object3_1_0_indices",
      "componentType": 5123,
      "count": 60,
      "min": [
        0
      ],
      "max": [
        59
      ],
      "type": "SCALAR",
      "bufferView": 3,
      "byteOffset": 240
    }
  ],
  "asset": {
    "generator": "obj2gltf",
    "version": "2.0"
  },
  "buffers": [
    {
      "name": "Prop_Grass_Clump_1",
      "byteLength": 6120,
      "uri": "data:application/octet-stream;base64,"
    }
  ],
  "bufferViews": [
    {
      "name": "bufferView_0",
      "buffer": 0,
      "byteLength": 2160,
      "byteOffset": 0,
      "byteStride": 12,
      "target": 34962
    },
    {
      "name": "bufferView_1",
      "buffer": 0,
      "byteLength": 2160,
      "byteOffset": 2160,
      "byteStride": 12,
      "target": 34962
    },
    {
      "name": "bufferView_2",
      "buffer": 0,
      "byteLength": 1440,
      "byteOffset": 4320,
      "byteStride": 8,
      "target": 34962
    },
    {
      "name": "bufferView_3",
      "buffer": 0,
      "byteLength": 360,
      "byteOffset": 5760,
      "target": 34963
    }
  ],
  "materials": [
    {
      "name": "Grass",
      "pbrMetallicRoughness": {
        "baseColorFactor": [
          0.1333,
          0.5451,
          0.1333,
          1
        ],
        "metallicFactor": 0,
        "roughnessFactor": 1
      },
      "emissiveFactor": [
        0,
        0,
        0
      ],
      "alphaMode": "OPAQUE",
      "doubleSided": false
    }
  ],
  "meshes": [
    {
      "name": "object1_1",
      "primitives": [
        {
          "attributes": {
            "POSITION": 0,
            "NORMAL": 1,
            "TEXCOORD_0": 2
          },
          "indices": 3,
          "material": 0,
          "mode": 4
        }
      ]
    },
    {
      "name": "object2_1",
      "primitives": [
        {
          "attributes": {
            "POSITION": 4,
            "NORMAL": 5,
            "TEXCOORD_0": 6
          },
          "indices": 7,
          "material": 0,
          "mode": 4
        }
      ]
    },
    {
      "name": "object3_1",
      "primitives": [
        {
          "attributes": {
            "POSITION": 8,
            "NORMAL": 9,
            "TEXCOORD_0": 10
          },
          "indices": 11,
          "material": 0,
          "mode": 4
        }
      ]
    }
  ],
  "nodes": [
    {
      "name": "object1",
      "mesh": 0
    },
    {
      "name": "object2",
      "mesh": 1
    },
    {
      "name": "object3",
      "mesh": 2
    }
  ],
  "scene": 0,
  "scenes": [
    {
      "nodes": [
        0,
        1,
        2
      ]
    }
  ]
}
