{
  "accessors": [
    {
      "name": "object1_1_0_positions",
      "componentType": 5126,
      "count": 60,
      "min": [
        0,
        -0.032999999821186066,
        -0.20659682154655457
      ],
      "max": [
        0.25972169637680054,
        0.3896261155605316,
        0
      ],
      "type": "VEC3",
      "bufferView": 0,
      "byteOffset": 0
    },
    {
      "name": "object1_1_0_normals",
      "componentType": 5126,
      "count": 60,
      "min": [
        -0.9833494424819946,
        -0.7555142641067505,
        -0.8021604418754578
      ],
      "max": [
        0.8935949802398682,
        0.5966323018074036,
        0.9847359657287598
      ],
      "type": "VEC3",
      "bufferView": 1,
      "byteOffset": 0
    },
    {
      "name": "object1_1_0_texcoords",
      "componentType": 5126,
      "count": 60,
      "min": [
        0,
        0
      ],
      "max": [
        1,
        1
      ],
      "type": "VEC2",
      "bufferView": 2,
      "byteOffset": 0
    },
    {
      "name": "object1_1_0_indices",
      "componentType": 5123,
      "count": 60,
      "min": [
        0
      ],
      "max": [
        59
      ],
      "type": "SCALAR",
      "bufferView": 3,
      "byteOffset": 0
    },
    {
      "name": "object2_1_0_positions",
      "componentType": 5126,
      "count": 60,
      "min": [
        -0.1052432730793953,
        -0.032999999821186066,
        -0.32386550307273865
      ],
      "max": [
        0.019763469696044922,
        0.33957555890083313,
        0
      ],
      "type": "VEC3",
      "bufferView": 0,
      "byteOffset": 720
    },
    {
      "name": "object2_1_0_normals",
      "componentType": 5126,
      "count": 60,
      "min": [
        -0.6856282353401184,
        -0.7965221405029297,
        -0.9121611714363098
      ],
      "max": [
        0.935207188129425,
        0.666440486907959,
        0.8981083631515503
      ],
      "type": "VEC3",
      "bufferView": 1,
      "byteOffset": 720
    },
    {
      "name": "object2_1_0_texcoords",
      "componentType": 5126,
      "count": 60,
      "min": [
        0,
        0
      ],
      "max": [
        1,
        1
      ],
      "type": "VEC2",
      "bufferView": 2,
      "byteOffset": 480
    },
    {
      "name": "object2_1_0_indices",
      "componentType": 5123,
      "count": 60,
      "min": [
        0
      ],
      "max": [
        59
      ],
      "type": "SCALAR",
      "bufferView": 3,
      "byteOffset": 120
    },
    {
      "name": "object3_1_0_positions",
      "componentType": 5126,
      "count": 60,
      "min": [
        -0.3180553615093231,
        -0.032999999821186066,
        -0.020233159884810448
      ],
      "max": [
        0,
        0.2784087359905243,
        0.09475444257259369
      ],
      "type": "VEC3",
      "bufferView": 0,
      "byteOffset": 1440
    },
    {
      "name": "object3_1_0_normals",
      "componentType": 5126,
      "count": 60,
      "min": [
        -0.9023865461349487,
        -0.8426763415336609,
        -0.8671135902404785
      ],
      "max": [
        0.8613317608833313,
        0.7102577686309814,
        0.5803680419921875
      ],
      "type": "VEC3",
      "bufferView": 1,
      "byteOffset": 1440
    },
    {
      "name": "object3_1_0_texcoords",
      "componentType": 5126,
      "count": 60,
      "min": [
        0,
        0
      ],
      "max": [
        1,
        1
      ],
      "type": "VEC2",
      "bufferView": 2,
      "byteOffset": 960
    },
    {
      "name": "object3_1_0_indices",
      "componentType": 5123,
      "count": 60,
      "min": [
        0
      ],
      "max": [
        59
      ],
      "type": "SCALAR",
      "bufferView": 3,
      "byteOffset": 240
    },
    {
      "name": "object4_1_0_positions",
      "componentType": 5126,
      "count": 60,
      "min": [
        -0.007971850223839283,
        -0.032999999821186066,
        0
      ],
      "max": [
        0.13743658363819122,
        0.4234362244606018,
        0.3020741641521454
      ],
      "type": "VEC3",
      "bufferView": 0,
      "byteOffset": 2160
    },
    {
      "name": "object4_1_0_normals",
      "componentType": 5126,
      "count": 60,
      "min": [
        -0.9308865070343018,
        -0.729899525642395,
        -0.9265837073326111
      ],
      "max": [
        0.733440101146698,
        0.5670225024223328,
        0.9481924772262573
      ],
      "type": "VEC3",
      "bufferView": 1,
      "byteOffset": 2160
    },
    {
      "name": "object4_1_0_texcoords",
      "componentType": 5126,
      "count": 60,
      "min": [
        0,
        0
      ],
      "max": [
        1,
        1
      ],
      "type": "VEC2",
      "bufferView": 2,
      "byteOffset": 1440
    },
    {
      "name": "object4_1_0_indices",
      "componentType": 5123,
      "count": 60,
      "min": [
        0
      ],
      "max": [
        59
      ],
      "type": "SCALAR",
      "bufferView": 3,
      "byteOffset": 360
    }
  ],
  "asset": {
    "generator": "obj2gltf",
    "version": "2.0"
  },
  "buffers": [
    {
      "name": "Prop_Grass_Clump_2",
      "byteLength": 8160,
      "uri": "data:application/octet-stream;base64,"
    }
  ],
  "bufferViews": [
    {
      "name": "bufferView_0",
      "buffer": 0,
      "byteLength": 2880,
      "byteOffset": 0,
      "byteStride": 12,
      "target": 34962
    },
    {
      "name": "bufferView_1",
      "buffer": 0,
      "byteLength": 2880,
      "byteOffset": 2880,
      "byteStride": 12,
      "target": 34962
    },
    {
      "name": "bufferView_2",
      "buffer": 0,
      "byteLength": 1920,
      "byteOffset": 5760,
      "byteStride": 8,
      "target": 34962
    },
    {
      "name": "bufferView_3",
      "buffer": 0,
      "byteLength": 480,
      "byteOffset": 7680,
      "target": 34963
    }
  ],
  "materials": [
    {
      "name": "Grass",
      "pbrMetallicRoughness": {
        "baseColorFactor": [
          0.1333,
          0.5451,
          0.1333,
          1
        ],
        "metallicFactor": 0,
        "roughnessFactor": 1
      },
      "emissiveFactor": [
        0,
        0,
        0
      ],
      "alphaMode": "OPAQUE",
      "doubleSided": false
    }
  ],
  "meshes": [
    {
      "name": "object1_1",
      "primitives": [
        {
          "attributes": {
            "POSITION": 0,
            "NORMAL": 1,
            "TEXCOORD_0": 2
          },
          "indices": 3,
          "material": 0,
          "mode": 4
        }
      ]
    },
    {
      "name": "object2_1",
      "primitives": [
        {
          "attributes": {
            "POSITION": 4,
            "NORMAL": 5,
            "TEXCOORD_0": 6
          },
          "indices": 7,
          "material": 0,
          "mode": 4
        }
      ]
    },
    {
      "name": "object3_1",
      "primitives": [
        {
          "attributes": {
            "POSITION": 8,
            "NORMAL": 9,
            "TEXCOORD_0": 10
          },
          "indices": 11,
          "material": 0,
          "mode": 4
        }
      ]
    },
    {
      "name": "object4_1",
      "primitives": [
        {
          "attributes": {
            "POSITION": 12,
            "NORMAL": 13,
            "TEXCOORD_0": 14
          },
          "indices": 15,
          "material": 0,
          "mode": 4
        }
      ]
    }
  ],
  "nodes": [
    {
      "name": "object1",
      "mesh": 0
    },
    {
      "name": "object2",
      "mesh": 1
    },
    {
      "name": "object3",
      "mesh": 2
    },
    {
      "name": "object4",
      "mesh": 3
    }
  ],
  "scene": 0,
  "scenes": [
    {
      "nodes": [
        0,
        1,
        2,
        3
      ]
    }
  ]
}
