{
  "accessors": [
    {
      "name": "Node-Mesh_0_positions",
      "componentType": 5126,
      "count": 32,
      "min": [
        -0.5844870209693909,
        0.016418199986219406,
        0.20572899281978607
      ],
      "max": [
        -0.0016034500440582633,
        1.6812100410461426,
        0.8540329933166504
      ],
      "type": "VEC3",
      "bufferView": 0,
      "byteOffset": 0
    },
    {
      "name": "Node-Mesh_0_normals",
      "componentType": 5126,
      "count": 32,
      "min": [
        -0.17692652344703674,
        -0.013716188259422779,
        -0.9999999403953552
      ],
      "max": [
        1,
        0.001846174942329526,
        0.9238792657852173
      ],
      "type": "VEC3",
      "bufferView": 1,
      "byteOffset": 0
    },
    {
      "name": "Node-Mesh_0_texcoords",
      "componentType": 5126,
      "count": 32,
      "min": [
        0,
        0
      ],
      "max": [
        1,
        2.945240020751953
      ],
      "type": "VEC2",
      "bufferView": 2,
      "byteOffset": 0
    },
    {
      "name": "Node-Mesh_0_indices",
      "componentType": 5123,
      "count": 72,
      "min": [
        0
      ],
      "max": [
        31
      ],
      "type": "SCALAR",
      "bufferView": 3,
      "byteOffset": 0
    },
    {
      "name": "Node-Mesh_1_positions",
      "componentType": 5126,
      "count": 66,
      "min": [
        -0.581089973449707,
        0.008649949915707111,
        0.20980000495910645
      ],
      "max": [
        -0.003984420094639063,
        1.8917100429534912,
        0.8501999974250793
      ],
      "type": "VEC3",
      "bufferView": 0,
      "byteOffset": 384
    },
    {
      "name": "Node-Mesh_1_normals",
      "componentType": 5126,
      "count": 66,
      "min": [
        -1,
        -1,
        -1
      ],
      "max": [
        1,
        1,
        1
      ],
      "type": "VEC3",
      "bufferView": 1,
      "byteOffset": 384
    },
    {
      "name": "Node-Mesh_1_texcoords",
      "componentType": 5126,
      "count": 66,
      "min": [
        0,
        0
      ],
      "max": [
        1,
        2.945240020751953
      ],
      "type": "VEC2",
      "bufferView": 2,
      "byteOffset": 256
    },
    {
      "name": "Node-Mesh_1_indices",
      "componentType": 5123,
      "count": 192,
      "min": [
        0
      ],
      "max": [
        65
      ],
      "type": "SCALAR",
      "bufferView": 3,
      "byteOffset": 144
    },
    {
      "name": "Node-Mesh_2_positions",
      "componentType": 5126,
      "count": 132,
      "min": [
        -0.855400025844574,
        -0.016103699803352356,
        -0.06093119829893112
      ],
      "max": [
        0.273404985666275,
        0.10400299727916718,
        1.0681099891662598
      ],
      "type": "VEC3",
      "bufferView": 0,
      "byteOffset": 1176
    },
    {
      "name": "Node-Mesh_2_normals",
      "componentType": 5126,
      "count": 132,
      "min": [
        -1,
        -1,
        -1
      ],
      "max": [
        1,
        1,
        1
      ],
      "type": "VEC3",
      "bufferView": 1,
      "byteOffset": 1176
    },
    {
      "name": "Node-Mesh_2_texcoords",
      "componentType": 5126,
      "count": 132,
      "min": [
        0,
        0
      ],
      "max": [
        1,
        1
      ],
      "type": "VEC2",
      "bufferView": 2,
      "byteOffset": 784
    },
    {
      "name": "Node-Mesh_2_indices",
      "componentType": 5123,
      "count": 246,
      "min": [
        0
      ],
      "max": [
        131
      ],
      "type": "SCALAR",
      "bufferView": 3,
      "byteOffset": 528
    }
  ],
  "asset": {
    "generator": "obj2gltf",
    "version": "2.0"
  },
  "buffers": [
    {
      "name": "buttonbase",
      "byteLength": 8380,
      "uri": "data:application/octet-stream;base64,"
    }
  ],
  "bufferViews": [
    {
      "name": "bufferView_0",
      "buffer": 0,
      "byteLength": 2760,
      "byteOffset": 0,
      "byteStride": 12,
      "target": 34962
    },
    {
      "name": "bufferView_1",
      "buffer": 0,
      "byteLength": 2760,
      "byteOffset": 2760,
      "byteStride": 12,
      "target": 34962
    },
    {
      "name": "bufferView_2",
      "buffer": 0,
      "byteLength": 1840,
      "byteOffset": 5520,
      "byteStride": 8,
      "target": 34962
    },
    {
      "name": "bufferView_3",
      "buffer": 0,
      "byteLength": 1020,
      "byteOffset": 7360,
      "target": 34963
    }
  ],
  "materials": [
    {
      "name": "Blue",
      "pbrMetallicRoughness": {
        "baseColorFactor": [
          0,
          0,
          0.63,
          1
        ],
        "metallicFactor": 0,
        "roughnessFactor": 1
      },
      "emissiveFactor": [
        0,
        0,
        0
      ],
      "alphaMode": "OPAQUE",
      "doubleSided": false
    },
    {
      "name": "White",
      "pbrMetallicRoughness": {
        "baseColorFactor": [
          1,
          1,
          1,
          1
        ],
        "metallicFactor": 0,
        "roughnessFactor": 1
      },
      "emissiveFactor": [
        0,
        0,
        0
      ],
      "alphaMode": "OPAQUE",
      "doubleSided": false
    },
    {
      "name": "Black",
      "pbrMetallicRoughness": {
        "baseColorFactor": [
          0.08,
          0.08,
          0.08,
          1
        ],
        "metallicFactor": 0,
        "roughnessFactor": 1
      },
      "emissiveFactor": [
        0,
        0,
        0
      ],
      "alphaMode": "OPAQUE",
      "doubleSided": false
    }
  ],
  "meshes": [
    {
      "name": "Node-Mesh",
      "primitives": [
        {
          "attributes": {
            "POSITION": 0,
            "NORMAL": 1,
            "TEXCOORD_0": 2
          },
          "indices": 3,
          "material": 0,
          "mode": 4
        },
        {
          "attributes": {
            "POSITION": 4,
            "NORMAL": 5,
            "TEXCOORD_0": 6
          },
          "indices": 7,
          "material": 1,
          "mode": 4
        },
        {
          "attributes": {
            "POSITION": 8,
            "NORMAL": 9,
            "TEXCOORD_0": 10
          },
          "indices": 11,
          "material": 2,
          "mode": 4
        }
      ]
    }
  ],
  "nodes": [
    {
      "name": "Node",
      "mesh": 0
    }
  ],
  "scene": 0,
  "scenes": [
    {
      "nodes": [
        0
      ]
    }
  ]
}
