{
  "accessors": [
    {
      "name": "Cube.002_Cube.001-Mesh_0_positions",
      "componentType": 5126,
      "count": 432,
      "min": [
        -0.5975430011749268,
        -0.8649929761886597,
        -0.45447298884391785
      ],
      "max": [
        0.5975430011749268,
        -0.40473800897598267,
        0.533149003982544
      ],
      "type": "VEC3",
      "bufferView": 0,
      "byteOffset": 0
    },
    {
      "name": "Cube.002_Cube.001-Mesh_0_normals",
      "componentType": 5126,
      "count": 432,
      "min": [
        -1,
        -1,
        -1
      ],
      "max": [
        1,
        1,
        1
      ],
      "type": "VEC3",
      "bufferView": 1,
      "byteOffset": 0
    },
    {
      "name": "Cube.002_Cube.001-Mesh_0_indices",
      "componentType": 5123,
      "count": 744,
      "min": [
        0
      ],
      "max": [
        431
      ],
      "type": "SCALAR",
      "bufferView": 2,
      "byteOffset": 0
    }
  ],
  "asset": {
    "generator": "obj2gltf",
    "version": "2.0"
  },
  "buffers": [
    {
      "name": "PicnicTable",
      "byteLength": 11856,
      "uri": "data:application/octet-stream;base64,"
    }
  ],
  "bufferViews": [
    {
      "name": "bufferView_0",
      "buffer": 0,
      "byteLength": 5184,
      "byteOffset": 0,
      "byteStride": 12,
      "target": 34962
    },
    {
      "name": "bufferView_1",
      "buffer": 0,
      "byteLength": 5184,
      "byteOffset": 5184,
      "byteStride": 12,
      "target": 34962
    },
    {
      "name": "bufferView_2",
      "buffer": 0,
      "byteLength": 1488,
      "byteOffset": 10368,
      "target": 34963
    }
  ],
  "materials": [
    {
      "name": "wood",
      "pbrMetallicRoughness": {
        "baseColorFactor": [
          0.650005,
          0.486288,
          0.257417,
          1
        ],
        "metallicFactor": 0,
        "roughnessFactor": 0.775
      },
      "emissiveFactor": [
        0,
        0,
        0
      ],
      "alphaMode": "OPAQUE",
      "doubleSided": false
    }
  ],
  "meshes": [
    {
      "name": "Cube.002_Cube.001-Mesh",
      "primitives": [
        {
          "attributes": {
            "POSITION": 0,
            "NORMAL": 1
          },
          "indices": 2,
          "material": 0,
          "mode": 4
        }
      ]
    }
  ],
  "nodes": [
    {
      "name": "Cube.002_Cube.001",
      "mesh": 0
    }
  ],
  "scene": 0,
  "scenes": [
    {
      "nodes": [
        0
      ]
    }
  ]
}
